<?xml version="1.0" encoding="UTF-8"?>
<svg width="815px" height="841px" viewBox="0 0 815 841" version="1.1" xmlns="http://www.w3.org/2000/svg" xmlns:xlink="http://www.w3.org/1999/xlink">
    <title>登录@1x</title>
    <g id="Page-1" stroke="none" stroke-width="1" fill="none" fill-rule="evenodd">
        <g id="新员工手册" transform="translate(-295.000000, -1632.000000)">
            <g id="登录" transform="translate(295.000000, 1632.000000)">
                <path d="M443.0968,166.6206 L443.0968,307.2466 L420.3318,305.8426 L419.2788,305.7816 C418.9658,304.8816 418.5848,304.0116 418.1188,303.2026 C417.3178,301.7906 416.2868,300.5316 415.3948,299.1886 C415.1198,297.7006 414.6468,296.3106 414.0138,295.0216 C413.8678,293.8306 413.6698,292.6406 413.3718,291.4956 C413.2198,290.9156 413.0288,290.3436 412.8148,289.7786 L415.4328,273.8136 L413.7158,273.2866 L359.3328,256.5816 C359.2948,256.5656 359.2488,256.5506 359.2028,256.5356 L357.6768,256.0626 C357.6158,256.0476 357.5628,256.0316 357.5168,256.0166 C357.4788,256.0016 357.4488,255.9936 357.4178,255.9866 L357.3038,255.9556 C357.2958,255.9476 357.2878,255.9476 357.2878,255.9476 L355.1658,255.2996 C367.2398,192.9956 409.5178,172.6726 443.0968,166.6206" id="Fill-352" fill="#FFBE21"></path>
                <path d="M430.1691,316.6338 C426.1401,313.5738 422.8431,309.9338 420.3321,305.8428 C415.1501,297.4408 413.3031,287.1458 415.2041,276.1258 C416.8751,266.4338 422.0721,256.0548 428.2311,248.1788 L426.5901,246.8968 C420.5451,254.2918 415.9591,263.9158 413.7151,273.2868 C413.4021,274.5538 413.1431,275.8208 412.9291,277.0798 C409.9611,294.2658 415.8981,308.4678 428.8871,318.3278 C433.3901,321.7468 438.1671,324.7998 443.0971,327.5548 L443.0971,325.1198 C438.6171,322.5638 434.2751,319.7478 430.1691,316.6338" id="Fill-353" fill="#000000"></path>
                <path d="M367.0182,345.2754 C357.3102,328.5394 343.3222,294.9684 358.6462,258.1464 C358.8832,257.5734 359.0892,257.1464 359.3332,256.5814 C359.2952,256.5664 359.2492,256.5504 359.2032,256.5354 C358.7532,256.3754 358.0892,256.1764 357.6772,256.0624 C357.6162,256.0474 357.5622,256.0314 357.5172,256.0164 C357.4782,256.0014 357.4482,255.9934 357.4172,255.9864 L357.3032,255.9554 C357.2952,255.9474 357.2882,255.9474 357.2882,255.9474 C357.0282,256.5434 356.9292,256.7334 356.6852,257.3294 C341.0102,294.9984 355.2812,329.2644 365.1792,346.3434 C373.0472,359.9124 383.4032,370.8254 394.3922,379.5414 C392.8892,388.5234 391.4772,397.5814 390.0422,406.7774 C384.6242,441.6614 379.0222,477.7354 367.0182,514.9474 C366.9642,515.1004 366.8802,515.2754 366.5072,515.3974 C362.5992,516.6034 343.9172,509.8574 262.4742,451.1174 C215.9902,417.5914 171.0702,382.9524 170.6202,382.6084 L169.7122,381.9144 L166.9802,385.4404 L166.9752,385.4464 C165.3172,377.4684 162.9872,368.9544 159.6942,360.4584 C156.4792,352.1624 152.6232,344.5844 148.1722,337.7434 C147.5932,338.2464 146.9782,338.7044 146.3332,339.1124 C150.6652,345.7894 154.4212,353.1874 157.5602,361.2854 C161.0712,370.3454 163.4712,379.4214 165.1232,387.8264 L97.8692,474.4544 L97.8652,474.4594 C90.3072,471.1214 80.2562,471.2404 72.2802,474.9834 L72.0332,475.1044 C70.8722,475.6624 69.7502,476.3194 68.6942,477.0584 C66.5232,478.5684 64.4122,479.9704 62.3512,481.2824 C62.4502,481.4494 62.5632,481.6074 62.6552,481.7794 C62.9272,482.2944 63.1662,482.8154 63.3832,483.3394 C65.5322,481.9744 67.7372,480.5124 70.0032,478.9354 C71.0272,478.2194 72.1182,477.5894 73.2472,477.0624 L73.4932,476.9454 C80.6752,473.6614 89.5842,473.5044 96.4112,476.3324 L91.0392,483.2534 L92.0312,483.9474 C92.7102,484.4134 160.4012,531.2944 234.3512,571.6494 C277.8202,595.3684 314.9252,612.2334 344.6422,621.7814 C363.9502,627.9784 380.1902,631.0844 393.2552,631.0844 C405.5342,631.0844 415.0202,628.3444 421.6222,622.8644 C428.4672,617.1874 435.6332,608.9984 443.0972,598.3144 L443.0972,594.1014 C435.0302,606.0834 427.3602,615.1344 420.1642,621.1024 C396.6892,640.5694 332.8212,622.7734 235.4652,569.6504 C166.4992,532.0114 102.9742,488.6944 94.3352,482.7504 L170.1242,385.1194 C176.7262,390.1944 218.2642,422.0564 261.1302,452.9714 C288.4592,472.6834 310.9792,488.1604 328.0592,498.9744 C357.2652,517.4734 364.3772,518.4504 367.1862,517.5804 C368.1932,517.2674 368.8882,516.6034 369.1932,515.6494 C381.2582,478.2624 386.8752,442.0964 392.3092,407.1294 C393.6752,398.3524 395.0182,389.7064 396.4452,381.1354 C402.6882,385.9054 409.1062,389.9884 415.3492,393.4534 C421.7362,397.0024 427.9402,399.9094 433.6192,402.2674 C436.8092,403.5954 439.9762,404.8084 443.0972,405.9304 L443.0972,403.6644 C440.2122,402.6264 437.3202,401.5124 434.4272,400.3064 C413.0892,391.4304 384.0752,374.6874 367.0182,345.2754" id="Fill-354" fill="#000000"></path>
                <path d="M507.5578,412.8491 C501.0428,412.8491 495.7618,418.1301 495.7618,424.6451 C495.7618,431.1601 501.0428,436.4401 507.5578,436.4401 C514.0718,436.4401 519.3528,431.1601 519.3528,424.6451 C519.3528,418.1301 514.0718,412.8491 507.5578,412.8491" id="Fill-355" fill="#000000"></path>
                <path d="M444.6545,838.064 L444.6545,53.004 L809.4955,2.626 L811.7785,787.685 L444.6545,838.064 Z M811.7805,1.31 L811.7775,0 L507.9555,0 L507.9555,41.952 L442.3645,51.009 L442.3645,840.689 L813.0815,789.817 L814.0735,789.681 L811.7805,1.31 Z" id="Fill-356" fill="#000000"></path>
                <path d="M132.529,318.583 L8.52651283e-14,492.528 C8.52651283e-14,492.528 26.15,511.862 73.503,477.022 L160.898,363.625 C157.593,348.251 146.479,331.232 132.529,318.583" id="Fill-357" fill="#FFBE21"></path>
            </g>
        </g>
    </g>
</svg>